<?xml version="1.0" encoding="UTF-8" standalone="no"?><!-- Generator: Gravit.io --><svg xmlns="http://www.w3.org/2000/svg" xmlns:xlink="http://www.w3.org/1999/xlink" style="isolation:isolate" viewBox="0 0 30 30" width="30pt" height="30pt"><defs><clipPath id="_clipPath_BRDh7oRzUy8RvbVjx6jzQslQ6jDQQYQo"><rect width="30" height="30"/></clipPath></defs><g clip-path="url(#_clipPath_BRDh7oRzUy8RvbVjx6jzQslQ6jDQQYQo)"><g><mask id="_mask_xb4rnzIjHwEPAW1GCtRp2GVMK7eHQpQj"><path d=" M 15 21 L 15 21 L 15 21 C 18.311 21 21 18.311 21 15 C 21 11.689 18.311 9 15 9 L 9 9 L 9 9 L 9 9 C 5.689 9 3 11.689 3 15 C 3 18.311 5.689 21 9 21 L 9 21 L 15 21 Z " fill-rule="evenodd" fill="white" stroke="none"/></mask><path d=" M 15 21 L 15 21 L 15 21 C 18.311 21 21 18.311 21 15 C 21 11.689 18.311 9 15 9 L 9 9 L 9 9 L 9 9 C 5.689 9 3 11.689 3 15 C 3 18.311 5.689 21 9 21 L 9 21 L 15 21 Z " fill-rule="evenodd" fill="none"/><path d=" M 15 21 L 15 21 L 15 21 C 18.311 21 21 18.311 21 15 C 21 11.689 18.311 9 15 9 L 9 9 L 9 9 L 9 9 C 5.689 9 3 11.689 3 15 C 3 18.311 5.689 21 9 21 L 9 21 L 15 21 Z " fill-rule="evenodd" fill="none" mask="url(#_mask_xb4rnzIjHwEPAW1GCtRp2GVMK7eHQpQj)" vector-effect="non-scaling-stroke" stroke-width="2" stroke="rgb(255,255,255)" stroke-linejoin="miter" stroke-linecap="square" stroke-miterlimit="3"/><mask id="_mask_MaRZObntP1cyzqRj4enHV5Dbz5UYbvLk"><path d=" M 3.507 17.416 L 0 18 L 0 12 L 3.507 12.584 C 3.181 13.324 3 14.141 3 15 C 3 15.859 3.181 16.676 3.507 17.416 Z " fill-rule="evenodd" fill="white" stroke="none"/></mask><path d=" M 3.507 17.416 L 0 18 L 0 12 L 3.507 12.584 C 3.181 13.324 3 14.141 3 15 C 3 15.859 3.181 16.676 3.507 17.416 Z " fill-rule="evenodd" fill="none"/><path d=" M 3.507 17.416 L 0 18 L 0 12 L 3.507 12.584 C 3.181 13.324 3 14.141 3 15 C 3 15.859 3.181 16.676 3.507 17.416 Z " fill-rule="evenodd" fill="none" mask="url(#_mask_MaRZObntP1cyzqRj4enHV5Dbz5UYbvLk)" vector-effect="non-scaling-stroke" stroke-width="2" stroke="rgb(255,255,255)" stroke-linejoin="miter" stroke-linecap="square" stroke-miterlimit="3"/></g><path d=" M 13 9 L 18 5 L 23 9" fill="none" vector-effect="non-scaling-stroke" stroke-width="1" stroke="rgb(255,255,255)" stroke-linejoin="miter" stroke-linecap="square" stroke-miterlimit="3"/><path d=" M 13 21 L 18 25 L 23 21" fill="none" vector-effect="non-scaling-stroke" stroke-width="1" stroke="rgb(255,255,255)" stroke-linejoin="miter" stroke-linecap="square" stroke-miterlimit="3"/><path d=" M 26.536 11.121 L 25.828 9 L 23 9 L 23 11.828 L 25.121 12.536" fill="none" vector-effect="non-scaling-stroke" stroke-width="1" stroke="rgb(255,255,255)" stroke-linejoin="miter" stroke-linecap="square" stroke-miterlimit="3"/><path d=" M 26.536 18.879 L 25.828 21 L 23 21 L 23 18.172 L 25.121 17.464" fill="none" vector-effect="non-scaling-stroke" stroke-width="1" stroke="rgb(255,255,255)" stroke-linejoin="miter" stroke-linecap="square" stroke-miterlimit="3"/></g></svg>