<?xml version="1.0" encoding="UTF-8" standalone="no"?><!-- Generator: Gravit.io --><svg xmlns="http://www.w3.org/2000/svg" xmlns:xlink="http://www.w3.org/1999/xlink" style="isolation:isolate" viewBox="0 0 30 30" width="30pt" height="30pt"><defs><clipPath id="_clipPath_kkaJdQXNXpJ8x1aVRwz9us6dmGyBZDDC"><rect width="30" height="30"/></clipPath></defs><g clip-path="url(#_clipPath_kkaJdQXNXpJ8x1aVRwz9us6dmGyBZDDC)"><rect width="30" height="30" style="fill:rgb(15,14,23)" fill-opacity="0"/><mask id="_mask_cDTOgrozadME2gYMWv2siL6TohN0il7V"><path d=" M 10 7 C 10 4.24 12.24 2 15 2 L 15 2 C 17.76 2 20 4.24 20 7 L 20 7 L 10 7 Z " fill-rule="evenodd" fill="white" stroke="none"/></mask><path d=" M 10 7 C 10 4.24 12.24 2 15 2 L 15 2 C 17.76 2 20 4.24 20 7 L 20 7 L 10 7 Z " fill-rule="evenodd" fill="none"/><path d=" M 10 7 C 10 4.24 12.24 2 15 2 L 15 2 C 17.76 2 20 4.24 20 7 L 20 7 L 10 7 Z " fill-rule="evenodd" fill="none" mask="url(#_mask_cDTOgrozadME2gYMWv2siL6TohN0il7V)" vector-effect="non-scaling-stroke" stroke-width="2" stroke="rgb(255,255,255)" stroke-linejoin="miter" stroke-linecap="square" stroke-miterlimit="3"/><mask id="_mask_mxccEfPMa2zaC9g5n8ap1bpePbEjIilu"><path d=" M 20 9 C 20 11.76 17.76 14 15 14 L 15 14 C 12.24 14 10 11.76 10 9 L 10 9 L 20 9 Z " fill-rule="evenodd" fill="white" stroke="none"/></mask><path d=" M 20 9 C 20 11.76 17.76 14 15 14 L 15 14 C 12.24 14 10 11.76 10 9 L 10 9 L 20 9 Z " fill-rule="evenodd" fill="none"/><path d=" M 20 9 C 20 11.76 17.76 14 15 14 L 15 14 C 12.24 14 10 11.76 10 9 L 10 9 L 20 9 Z " fill-rule="evenodd" fill="none" mask="url(#_mask_mxccEfPMa2zaC9g5n8ap1bpePbEjIilu)" vector-effect="non-scaling-stroke" stroke-width="2" stroke="rgb(255,255,255)" stroke-linejoin="miter" stroke-linecap="square" stroke-miterlimit="3"/><mask id="_mask_Lvn0rlOBZvR6cRh7rGMveIltynpdAePf"><rect x="11" y="6" width="8" height="4" fill="white" stroke="none"/></mask><rect x="11" y="6" width="8" height="4" transform="matrix(1,0,0,1,0,0)" fill="none"/><rect x="11" y="6" width="8" height="4" transform="matrix(1,0,0,1,0,0)" fill="none" mask="url(#_mask_Lvn0rlOBZvR6cRh7rGMveIltynpdAePf)" vector-effect="non-scaling-stroke" stroke-width="2" stroke="rgb(255,255,255)" stroke-linejoin="miter" stroke-linecap="square" stroke-miterlimit="2"/><line x1="15" y1="14" x2="15" y2="28" vector-effect="non-scaling-stroke" stroke-width="1" stroke="rgb(255,255,255)" stroke-linejoin="miter" stroke-linecap="square" stroke-miterlimit="3"/><path d=" M 10 1.637 L 9.293 0.93 C 7.483 2.74 6.363 5.24 6.363 8 C 6.363 10.76 7.483 13.26 9.293 15.07 L 10 14.363 C 8.371 12.734 7.363 10.484 7.363 8 C 7.363 5.516 8.371 3.266 10 1.637 Z " fill-rule="evenodd" fill="rgb(255,255,255)"/><path d=" M 20 1.637 L 20.707 0.93 C 22.517 2.74 23.637 5.24 23.637 8 C 23.637 10.76 22.517 13.26 20.707 15.07 L 20 14.363 C 21.629 12.734 22.637 10.484 22.637 8 C 22.637 5.516 21.629 3.266 20 1.637 Z " fill-rule="evenodd" fill="rgb(255,255,255)"/></g></svg>